<mxfile host="app.diagrams.net" modified="2021-02-11T23:34:53.268Z" agent="5.0 (Windows NT 10.0; Win64; x64) AppleWebKit/537.36 (KHTML, like Gecko) Chrome/88.0.4324.150 Safari/537.36" etag="xacIHd-MGMDuaSGcwL7n" version="14.2.9" type="github">
  <diagram id="_NPrBZNz7Yl4AEw6zFf_" name="Page-1">
    <mxGraphModel dx="1422" dy="705" grid="1" gridSize="10" guides="1" tooltips="1" connect="1" arrows="1" fold="1" page="1" pageScale="1" pageWidth="850" pageHeight="1100" math="0" shadow="0">
      <root>
        <mxCell id="0" />
        <mxCell id="1" parent="0" />
        <mxCell id="cLwX6k39n8mUxXlA4llH-7" style="edgeStyle=orthogonalEdgeStyle;rounded=0;orthogonalLoop=1;jettySize=auto;html=1;exitX=0.5;exitY=1;exitDx=0;exitDy=0;entryX=0.5;entryY=0;entryDx=0;entryDy=0;" edge="1" parent="1" source="cLwX6k39n8mUxXlA4llH-1" target="cLwX6k39n8mUxXlA4llH-2">
          <mxGeometry relative="1" as="geometry" />
        </mxCell>
        <mxCell id="cLwX6k39n8mUxXlA4llH-8" style="edgeStyle=orthogonalEdgeStyle;rounded=0;orthogonalLoop=1;jettySize=auto;html=1;exitX=1;exitY=0.5;exitDx=0;exitDy=0;entryX=0;entryY=0.5;entryDx=0;entryDy=0;" edge="1" parent="1" source="cLwX6k39n8mUxXlA4llH-1" target="cLwX6k39n8mUxXlA4llH-3">
          <mxGeometry relative="1" as="geometry" />
        </mxCell>
        <mxCell id="cLwX6k39n8mUxXlA4llH-1" value="A" style="ellipse;whiteSpace=wrap;html=1;aspect=fixed;" vertex="1" parent="1">
          <mxGeometry x="120" y="140" width="60" height="60" as="geometry" />
        </mxCell>
        <mxCell id="cLwX6k39n8mUxXlA4llH-15" style="edgeStyle=orthogonalEdgeStyle;rounded=0;orthogonalLoop=1;jettySize=auto;html=1;exitX=1;exitY=0.5;exitDx=0;exitDy=0;entryX=0;entryY=0.5;entryDx=0;entryDy=0;" edge="1" parent="1" source="cLwX6k39n8mUxXlA4llH-2" target="cLwX6k39n8mUxXlA4llH-4">
          <mxGeometry relative="1" as="geometry" />
        </mxCell>
        <mxCell id="cLwX6k39n8mUxXlA4llH-2" value="E" style="ellipse;whiteSpace=wrap;html=1;aspect=fixed;" vertex="1" parent="1">
          <mxGeometry x="120" y="310" width="60" height="60" as="geometry" />
        </mxCell>
        <mxCell id="cLwX6k39n8mUxXlA4llH-9" style="edgeStyle=orthogonalEdgeStyle;rounded=0;orthogonalLoop=1;jettySize=auto;html=1;exitX=0.5;exitY=1;exitDx=0;exitDy=0;" edge="1" parent="1" source="cLwX6k39n8mUxXlA4llH-3" target="cLwX6k39n8mUxXlA4llH-4">
          <mxGeometry relative="1" as="geometry" />
        </mxCell>
        <mxCell id="cLwX6k39n8mUxXlA4llH-12" style="edgeStyle=orthogonalEdgeStyle;rounded=0;orthogonalLoop=1;jettySize=auto;html=1;exitX=1;exitY=0.5;exitDx=0;exitDy=0;entryX=0;entryY=0.5;entryDx=0;entryDy=0;" edge="1" parent="1" source="cLwX6k39n8mUxXlA4llH-3" target="cLwX6k39n8mUxXlA4llH-5">
          <mxGeometry relative="1" as="geometry" />
        </mxCell>
        <mxCell id="cLwX6k39n8mUxXlA4llH-3" value="C" style="ellipse;whiteSpace=wrap;html=1;aspect=fixed;" vertex="1" parent="1">
          <mxGeometry x="320" y="140" width="60" height="60" as="geometry" />
        </mxCell>
        <mxCell id="cLwX6k39n8mUxXlA4llH-11" style="edgeStyle=orthogonalEdgeStyle;rounded=0;orthogonalLoop=1;jettySize=auto;html=1;exitX=1;exitY=0.5;exitDx=0;exitDy=0;" edge="1" parent="1" source="cLwX6k39n8mUxXlA4llH-4">
          <mxGeometry relative="1" as="geometry">
            <mxPoint x="510" y="340" as="targetPoint" />
          </mxGeometry>
        </mxCell>
        <mxCell id="cLwX6k39n8mUxXlA4llH-4" value="D" style="ellipse;whiteSpace=wrap;html=1;aspect=fixed;" vertex="1" parent="1">
          <mxGeometry x="320" y="310" width="60" height="60" as="geometry" />
        </mxCell>
        <mxCell id="cLwX6k39n8mUxXlA4llH-14" style="edgeStyle=orthogonalEdgeStyle;rounded=0;orthogonalLoop=1;jettySize=auto;html=1;exitX=0.5;exitY=1;exitDx=0;exitDy=0;entryX=0.683;entryY=0.017;entryDx=0;entryDy=0;entryPerimeter=0;" edge="1" parent="1" source="cLwX6k39n8mUxXlA4llH-5" target="cLwX6k39n8mUxXlA4llH-6">
          <mxGeometry relative="1" as="geometry" />
        </mxCell>
        <mxCell id="cLwX6k39n8mUxXlA4llH-5" value="B" style="ellipse;whiteSpace=wrap;html=1;aspect=fixed;" vertex="1" parent="1">
          <mxGeometry x="520" y="140" width="60" height="60" as="geometry" />
        </mxCell>
        <mxCell id="cLwX6k39n8mUxXlA4llH-6" value="F" style="ellipse;whiteSpace=wrap;html=1;aspect=fixed;" vertex="1" parent="1">
          <mxGeometry x="510" y="300" width="60" height="60" as="geometry" />
        </mxCell>
      </root>
    </mxGraphModel>
  </diagram>
</mxfile>
